<?xml version="1.0" standalone="no"?>
<!DOCTYPE svg PUBLIC "-//W3C//DTD SVG 1.1//EN" "http://www.w3.org/Graphics/SVG/1.1/DTD/svg11.dtd" >
<svg xmlns="http://www.w3.org/2000/svg" xmlns:xlink="http://www.w3.org/1999/xlink" version="1.1">
<metadata></metadata>
<defs>
<font id="beynoregular" horiz-adv-x="2097" >
<font-face units-per-em="2048" ascent="1638" descent="-410" />
<missing-glyph horiz-adv-x="1024" />
<glyph horiz-adv-x="0" />
<glyph horiz-adv-x="682" />
<glyph unicode=" "  horiz-adv-x="1024" />
<glyph unicode="&#x09;" horiz-adv-x="1024" />
<glyph unicode="&#xa0;" horiz-adv-x="1024" />
<glyph unicode="A" d="M113 35q-3 20 0 26l4 9l870 1988q0 1 3 7t4.5 8t5 7t7.5 7l10 5t14 4t18 1h10q18 0 30 -6t16 -11.5t8.5 -15t4.5 -10.5q85 -207 211 -498l440 -991q131 -301 211 -495l-2 2l9 -37q0 -35 -52 -35h-1771q-54 0 -51 35zM457 248h315h868l-589 1394z" />
<glyph unicode="B" d="M264 45v1108q-1 20 13 34.5t34 14.5h840q138 0 232 96.5t94 237.5q0 140 -91 231t-233 91h-694q-45 0 -45 49v145q0 45 45 45h708q115 -3 213 -43q213 -87 299 -295q35 -75 43 -165q2 -26 2 -52q0 -63 -14 -124q-18 -86 -64.5 -166.5t-115.5 -137.5q103 -61 175.5 -153 t106.5 -201q23 -81 23 -152q0 -162 -76 -301t-211.5 -223t-298.5 -84h-936q-52 0 -49 45zM504 240h743q102 0 186.5 63t125.5 164q26 75 26 147q0 67 -27 129q-28 64 -71 112.5t-106.5 77t-133.5 28.5h-743v-721z" />
<glyph unicode="C" d="M203 1047q0 215 82.5 409t223 334.5t335 223.5t409.5 83q336 0 619 -199q24 -21 24 -45q0 -14 -4 -18l-75 -125q-29 -29 -37 -29q-16 0 -37 21q-204 141 -457 156q-180 0 -339.5 -66.5t-270.5 -178t-175.5 -260.5t-64.5 -311q0 -171 66 -321.5t176 -255t257 -165 t306 -60.5q238 0 442 131l60 37q20 11 32 11t17 -4.5t18 -21.5l80 -129q0 -1 2.5 -8t3.5 -11t1 -11.5t-3.5 -13t-10.5 -12.5t-19 -13q-274 -195 -615 -195q-172 0 -332 52.5t-288.5 149.5t-224.5 225.5t-148.5 288.5t-52.5 331z" />
<glyph unicode="D" d="M162 43v2003q-1 28 10 39.5t37 11.5h672q220 0 417.5 -82.5t338.5 -222.5t222 -334q78 -188 78 -396v-15q0 -143 -37.5 -279t-105.5 -250.5t-165 -211t-212.5 -164t-253 -105t-282.5 -37.5h-672q-23 0 -35.5 9.5t-11.5 33.5zM401 240h471q234 0 424 112t295 300t105 411 q0 175 -64.5 325t-174.5 252t-259.5 160t-316.5 58h-480v-1618z" />
<glyph unicode="E" d="M311 47v2007q0 24 11.5 33.5t35.5 9.5h1383q45 0 45 -45v-147q0 -52 -47 -52h-1182v-352h938q19 0 32 -12t13 -37v-145q0 -22 -11.5 -37t-33.5 -15h-938v-362h469h469q22 0 33.5 -13.5t11.5 -33.5v-148q0 -25 -13 -38t-32 -13h-938v-403h1174q53 0 53 -51v-142 q0 -28 -12 -39.5t-39 -11.5h-1375q-47 0 -47 47z" />
<glyph unicode="F" d="M324 43v2007q0 47 47 47h1353q22 0 39 -10q13 -13 13 -41v-141q0 -21 -14 -36.5t-38 -15.5h-1155v-682h817q20 0 34 -12t14 -35v-147q0 -21 -13 -36t-35 -15h-817v-883q0 -24 -12.5 -33.5t-38.5 -9.5h-147q-25 0 -36 9.5t-11 33.5z" />
<glyph unicode="G" d="M190 1047q0 171 52.5 331t149.5 289t226 226.5t289 150.5t332 53q190 0 395 -78q84 -35 164 -86q98 -58 98 -112q0 -19 -12 -37v2l-43 -74q-20 -33 -55 -33q-26 0 -53 21q-217 155 -478 155q-174 0 -330.5 -68t-265.5 -180.5t-173 -260t-64 -302.5q0 -166 65 -316.5 t173.5 -258t256.5 -170.5t308 -63q109 0 217 34t233 97l2 497q0 68 66 68h98q31 0 49.5 -18t18.5 -50v-592q0 -39 -27 -57l-18 -12q-276 -203 -629 -203q-142 0 -277.5 37.5t-250.5 105t-211 164.5t-163.5 211.5t-105 250.5t-37.5 278z" />
<glyph unicode="H" d="M186 45v2007q-2 21 10 33t35 12h150q19 0 33 -12.5t14 -32.5v-555h1241v555q0 21 13 33t36 12h144q21 0 36 -12.5t15 -32.5v-2007q0 -25 -11 -35t-40 -10h-144q-49 0 -49 45v602h-1241v-602q0 -45 -51 -45h-146q-45 0 -45 45zM428 893h621h620v362h-1241v-362z" />
<glyph unicode="I" d="M926 45v2007q0 20 12.5 32.5t32.5 12.5h149q21 0 36 -12.5t15 -32.5v-2007q0 -45 -51 -45h-149q-45 0 -45 45z" />
<glyph unicode="J" d="M606 188q0 22 19 41l90 95l12 4q25 23 49 2l27 -19q80 -80 196 -80q108 0 181 75.5t73 182.5v1567q0 38 41 41h152q47 0 47 -45v-1563q0 -135 -66.5 -248t-180 -177t-247.5 -64q-120 0 -220.5 42.5t-164.5 127.5l-2 2q-6 3 -6 16z" />
<glyph unicode="K" d="M358 70v1958q-2 30 16 49.5t52 19.5h102q30 0 50 -19.5t20 -49.5v-832l809 848q38 47 72 47h198l19 -2q25 0 38.5 -14t-3.5 -39l-1133 -1188v-162l776 821q42 45 72 45h199h18q16 -3 27 -8t18 -17t-10 -30l-334 -350l-334 -352l701 -740q17 -25 3.5 -39t-38.5 -14l-19 -2 h-198q-31 0 -72 47l-541 574l-268 -283v-268q0 -70 -72 -70h-100q-68 0 -68 64v6z" />
<glyph unicode="L" d="M393 45v2007q0 45 47 45h148q45 0 45 -45v-1808h1026q18 0 31.5 -13.5t13.5 -37.5v-148q0 -20 -12.5 -32.5t-32.5 -12.5h-1221q-45 0 -45 45z" />
<glyph unicode="M" d="M6 31q0 10 2 16l6 19l822 1992q0 4 4 8l-4 -6l16 25q9 12 43 12h94q32 0 41 -12l14 -23q0 -1 3 -4l4 -6l-2 2l247 -598l-125 -293l-231 557l-434 -1081l-98 -248l-140 -352v4q-16 -43 -59 -43h-154q-49 0 -49 31zM537 31q0 10 2 16l6 19l821 1992q0 4 4 8l-4 -6l16 25 q9 12 43 12h95q32 0 41 -12l14 -23q0 -2 2 -4l4 -6l-2 2l827 -1988l4 -9q3 -12 3 -26q0 -31 -52 -31h-149q-43 0 -59 35l-1 4l-57 147l-82 205l-311 772l-232 557l-434 -1081l-98 -248l-139 -352v4q-16 -43 -60 -43h-153q-49 0 -49 31z" />
<glyph unicode="N" d="M156 51v150q0 21 12.5 36t34.5 15h477h479q45 -3 45 -47l-2 -148q0 -22 -11.5 -36.5t-33.5 -14.5h-956q-20 0 -32.5 12.5t-12.5 32.5zM156 459l12 1591q0 23 13 35.5t36 11.5h191q29 0 45 -22l1237 -1667l12 1646q9 35 45 35l143 -2q19 0 37 -12q17 -10 17 -33l-15 -1997 q0 -43 -47 -43h-6h-184l-1286 1747l-7 -1085l508 -2q19 0 32 -13t13 -33l-2 -149q0 -21 -12.5 -36t-32.5 -15l-702 6h-2q-42 0 -45 37z" />
<glyph unicode="O" d="M2 1049q9 443 305 739q297 297 742 309q447 -12 741 -309q298 -295 307 -739q-9 -444 -307 -742q-295 -295 -741 -307q-444 12 -742 307q-296 299 -305 742zM233 1049q9 -349 238 -578q231 -231 578 -240q346 9 577 240t240 578q-9 344 -240 575q-233 233 -577 242 q-345 -9 -578 -242q-229 -229 -238 -575z" />
<glyph unicode="P" d="M287 45v924q-1 22 12.5 35.5t34.5 13.5h545l301 -4q157 12 273 139.5t116 282.5q0 106 -53.5 203t-147.5 158t-203 61h-692q-21 0 -34 11.5t-13 31.5v147q0 20 12.5 34.5t34.5 14.5h692h17q126 -3 239 -55q238 -109 342 -356q49 -119 49 -252q0 -126 -49.5 -245.5 t-134 -210t-205 -145.5t-254.5 -55h-641v-733q0 -45 -45 -45h-149q-50 0 -47 45z" />
<glyph unicode="Q" d="M0 1049q12 446 307 741q298 298 742 307q444 -9 739 -307q297 -294 309 -741q0 -360 -227 -650l213 -213q15 -14 15 -29q0 -17 -19 -36l-105 -105q-15 -15 -30.5 -15t-30.5 15l-213 213q-282 -227 -651 -227q-443 9 -742 305q-295 298 -307 742zM231 1049 q9 -347 240 -578q229 -229 578 -238q272 0 485 162l-111 111q-14 14 -14 30t14 33l103 103q14 14 33.5 15.5t33.5 -11.5l111 -111q159 218 162 484q-9 344 -242 577q-231 231 -575 240q-347 -9 -578 -240t-240 -577z" />
<glyph unicode="R" d="M287 45v924q-1 22 12.5 35.5t34.5 13.5h850q156 12 270.5 138t114.5 282q0 104 -53 200.5t-147.5 158t-203.5 61.5h-706q-45 0 -45 49v145q0 45 45 45h708q177 0 326 -92t234 -244.5t85 -326.5q0 -218 -139 -398t-356 -241l227 -381l228 -383l8 -15q8 -11 0 -14 q-8 -2 -25 -2h-221q-37 0 -64 45l-440 733h-502v-733q0 -45 -45 -45h-149q-47 0 -47 45z" />
<glyph unicode="S" d="M707 51v125q-1 20 11.5 32t33.5 13q61 7 119.5 38.5t105 77.5t82 105t52.5 119q15 52 15 106v15q-2 62 -30 111q-24 50 -72.5 109.5t-95 112.5t-91.5 117t-72.5 148t-27.5 180q0 129 50.5 246t135 200t195 134t228.5 57q21 0 34 -13t13 -38v-129q0 -20 -13.5 -32.5 t-33.5 -12.5q-99 -11 -187.5 -77t-142 -164.5t-53.5 -200.5q0 -53 21.5 -103t55.5 -93.5t75 -89t82.5 -98t75.5 -111t55.5 -138.5t21.5 -170q-2 -127 -51.5 -242t-131 -196.5t-190 -132t-225.5 -56.5q-21 0 -33.5 13t-11.5 38z" />
<glyph unicode="T" d="M594 47v1862v71v72q0 20 13.5 32.5t33.5 12.5h809q44 0 55 -45v-143q0 -56 -55 -56h-612v-1806q0 -20 -14 -33.5t-38 -13.5h-143q-20 0 -34.5 13.5t-14.5 33.5z" />
<glyph unicode="U" d="M203 846v1206q0 18 11.5 31.5t29.5 13.5h153q15 0 31 -13t16 -32v-1167q0 -139 41 -258t117 -207t191.5 -138.5t255.5 -50.5q152 0 270 50.5t191 140t110 207t37 256.5v1167q0 21 13.5 33t37.5 12h133q21 0 38 -13t17 -32v-1206q0 -184 -67 -342.5t-181 -268.5 t-269.5 -172.5t-329.5 -62.5q-230 0 -424.5 113.5t-308 308t-113.5 424.5z" />
<glyph unicode="V" d="M111 2066q0 31 51 31h149q46 0 60 -39l57 -147l82 -205l311 -772l232 -557l434 1081l98 248l139 352v-4q16 43 60 43h153q50 0 50 -31q0 -10 -2 -16l-7 -18l-821 -1993q0 -4 -4 -8l4 6l-16 -25q-9 -12 -43 -12h-94q-32 0 -41 12l-15 23q0 2 -2 4l-4 6l2 -2l-827 1989 l-4 8q-2 8 -2 26z" />
<glyph unicode="W" d="M6 2068q0 31 51 31h150q43 0 58 -34l1 -5l58 -147l82 -205l311 -772l231 -557l434 1081l99 248l139 352v-4q16 43 59 43h154q49 0 49 -31q0 -10 -2 -16l-6 -18l-821 -1993q0 -4 -4 -8l4 6l-17 -25q-9 -12 -43 -12h-94q-32 0 -41 12l-14 23q0 2 -2 4l-4 6l2 -2l-828 1989 l-4 8q-2 8 -2 26zM537 2068q0 31 51 31h149q43 0 59 -35l1 -4l57 -147l82 -205l311 -772l232 -557l434 1081l98 248l139 352v-4q16 43 60 43h153q50 0 50 -31q0 -7 -3 -16l-6 -18l-821 -1993q0 -4 -4 -8l4 6l-16 -25q-9 -12 -43 -12h-94q-32 0 -41 12l-15 23q0 2 -2 4l-4 6 l2 -2l-827 1989l-4 8q-2 8 -2 26z" />
<glyph unicode="X" d="M202 9.5q1 3.5 5 8.5l10 19v-4l690 1014l-362 534l-324 471v-4q-26 43 -14 48q2 0 6 1h209q31 0 48.5 -11.5t43.5 -45.5l533 -785l536 785h-2l25 28q29 29 69 29h209q6 -1 8.5 -3t2.5 -7t-4 -14.5t-13 -24.5v4l-154 -221l-172 -250l-182 -266l-180 -268l690 -1014 q6 -8 8 -11.5t3.5 -10t-4.5 -9t-19 -2.5h-211q-43 0 -72 45l-538 797l-269 -400q-223 -331 -268 -397q-30 -45 -70 -45h-213q-15 0 -20.5 3t-4.5 6.5z" />
<glyph unicode="Y" d="M569.5 2080q-2.5 8 1.5 12.5t17 4.5h891q20 0 32.5 -12.5t12.5 -32.5v-149q0 -21 -12.5 -36.5t-32.5 -15.5h-244h-244l541 -915v-885q0 -28 -11.5 -39.5t-37.5 -11.5h-152q-25 0 -34 11t-9 40v871l-706 1132q-10 18 -12.5 26z" />
<glyph unicode="Z" horiz-adv-x="1705" d="M4 51v156q-1 5 4 31l1321 1615h-1249q-28 0 -39.5 13t-11.5 39v147q0 25 11 35t40 10h1522q51 0 51 -49v-158q0 -10 -2 -16l-9 -21l3 5l-1305 -1614h670h669q44 -7 47 -51v-142q0 -21 -13.5 -36t-33.5 -15h-1626q-21 0 -35.5 14.5t-13.5 36.5zM973 449v149q3 21 14 35 q2 16 33 16h661q20 0 32.5 -12.5t12.5 -32.5v-149q0 -21 -12.5 -36.5t-32.5 -15.5h-663q-20 0 -32.5 13t-12.5 33z" />
<glyph unicode="&#x2000;" horiz-adv-x="1049" />
<glyph unicode="&#x2001;" horiz-adv-x="2099" />
<glyph unicode="&#x2002;" horiz-adv-x="1049" />
<glyph unicode="&#x2003;" horiz-adv-x="2099" />
<glyph unicode="&#x2004;" horiz-adv-x="699" />
<glyph unicode="&#x2005;" horiz-adv-x="524" />
<glyph unicode="&#x2006;" horiz-adv-x="349" />
<glyph unicode="&#x2007;" horiz-adv-x="349" />
<glyph unicode="&#x2008;" horiz-adv-x="262" />
<glyph unicode="&#x2009;" horiz-adv-x="419" />
<glyph unicode="&#x200a;" horiz-adv-x="116" />
<glyph unicode="&#x202f;" horiz-adv-x="419" />
<glyph unicode="&#x205f;" horiz-adv-x="524" />
<glyph unicode="&#x25fc;" horiz-adv-x="1024" d="M0 0z" />
</font>
</defs>
</svg>
